<svg width="50" height="50" viewBox="0 0 50 50" fill="none" xmlns="http://www.w3.org/2000/svg">
<g clip-path="url(#clip0)">
<path d="M32.8585 1.25244C32.1709 1.25244 31.5815 1.84183 31.5815 2.52946V6.01669C31.5815 6.70431 32.1709 7.2937 32.8585 7.2937C33.5462 7.2937 34.1356 6.70431 34.1356 6.01669V2.52946C34.1356 1.84183 33.5462 1.25244 32.8585 1.25244Z" fill="#393567"/>
<path d="M44.9411 6.26229C44.4499 5.77113 43.664 5.77113 43.1729 6.26229L40.7171 8.71809C40.2259 9.20924 40.2259 9.9951 40.7171 10.4863C41.2083 10.9774 41.9941 10.9774 42.4853 10.4863L44.9411 8.03046C45.4322 7.5393 45.4322 6.75345 44.9411 6.26229Z" fill="#393567"/>
<path d="M24.9509 8.71809L22.4951 6.26229C22.0039 5.77113 21.2181 5.77113 20.7269 6.26229C20.2358 6.75345 20.2358 7.5393 20.7269 8.03046L23.1827 10.4863C23.6739 10.9774 24.4597 10.9774 24.9509 10.4863C25.442 9.9951 25.442 9.20924 24.9509 8.71809Z" fill="#393567"/>
<path d="M33.7917 39.6119C32.8094 38.6296 31.4833 38.0402 30.0098 38.0402C29.9607 38.0402 29.9116 38.0402 29.9116 38.0402H16.11C15.4224 38.0402 14.833 38.5805 14.833 39.3172C14.833 40.0049 15.3733 40.5943 16.11 40.5943H29.9116C29.9607 40.5943 29.9607 40.5943 30.0098 40.5943C30.7957 40.5943 31.4833 40.8889 31.9745 41.4292C32.4656 41.9204 32.8094 42.6571 32.8094 43.3939C32.8094 44.1797 32.5147 44.8673 31.9745 45.3585C31.4833 45.8497 30.7466 46.1935 30.0098 46.1935C29.224 46.1935 28.5363 45.8988 28.0452 45.3585C27.554 44.8673 27.2102 44.1306 27.2102 43.3939C27.2102 42.7062 26.6208 42.1168 25.9332 42.1168C25.2456 42.1168 24.6562 42.7062 24.6562 43.3939C24.6562 44.8673 25.2456 46.1935 26.2279 47.1758C27.2102 48.1581 28.5363 48.7475 30.0098 48.7475C31.4833 48.7475 32.8094 48.1581 33.7917 47.1758C34.7741 46.1935 35.3635 44.8673 35.3635 43.3939C35.3635 41.9204 34.7741 40.5943 33.7917 39.6119Z" fill="#393567"/>
<path d="M44.8919 28.6591L42.4853 26.2525C41.9941 25.7613 41.2083 25.7613 40.7171 26.2525C40.5206 26.4489 40.4224 26.6454 40.3733 26.891C40.3242 25.7613 40.0295 24.7299 39.6365 23.7475C40.1277 23.109 40.5697 22.3723 40.8644 21.6356C41.3065 20.6041 41.5029 19.4745 41.5029 18.3448C41.5029 15.9381 40.5206 13.777 38.9489 12.2544C37.3772 10.7318 35.2161 9.74951 32.8585 9.74951C31.2377 9.74951 29.7151 10.1916 28.389 10.9774C27.4558 11.5668 26.6208 12.3035 25.9332 13.1876C23.9686 11.8615 21.611 11.0756 19.1061 11.0756C16.11 11.0756 13.3595 12.1562 11.2475 13.9735C9.38114 15.5943 8.00589 17.7554 7.36739 20.3094C5.45187 20.555 3.73281 21.4391 2.4558 22.7161C0.933202 24.2387 0 26.3507 0 28.6591C0 30.9676 0.933202 33.0796 2.4558 34.6022C3.97839 36.1248 6.09037 37.058 8.39882 37.058H30.7466C33.3988 37.058 35.7564 35.9774 37.5246 34.2584C39.2436 32.5393 40.3242 30.1326 40.3242 27.4804V27.4312C40.3733 27.6277 40.4715 27.8242 40.668 27.9715L43.1238 30.4273C43.6149 30.9185 44.4008 30.9185 44.8919 30.4273C45.3831 29.9362 45.3831 29.1503 44.8919 28.6591ZM35.8055 32.4902C34.5285 33.7672 32.7603 34.553 30.8448 34.553H8.44794C6.82711 34.553 5.35363 33.9145 4.27308 32.834C3.19253 31.7534 2.55403 30.28 2.55403 28.6591C2.55403 27.0383 3.19253 25.5648 4.27308 24.4843C5.35363 23.4037 6.82711 22.7652 8.44794 22.7652C8.6444 22.7652 8.88998 22.7161 9.03733 22.6179C9.33202 22.4214 9.52849 22.1267 9.5776 21.7829C9.92141 19.4745 11.1002 17.4116 12.7701 15.9872C14.4401 14.5629 16.6503 13.6788 19.0079 13.6788C21.0216 13.6788 22.888 14.3173 24.4597 15.3978C25.6385 16.2328 26.6699 17.3134 27.3576 18.6395C27.1611 18.7377 26.9646 18.7868 26.7682 18.8851C25.5403 19.4253 24.4597 20.2603 23.5265 21.2426C23.0845 21.7829 23.1336 22.5688 23.6248 23.0108C24.165 23.4529 24.9509 23.4037 25.3929 22.9126C26.0806 22.1758 26.8664 21.5864 27.7505 21.1444C28.6346 20.7515 29.6169 20.5059 30.6483 20.5059C32.613 20.5059 34.332 21.2918 35.609 22.5688C36.8861 23.8458 37.6719 25.614 37.6719 27.5295C37.8193 29.4941 37.0334 31.2132 35.8055 32.4902ZM38.5069 20.7024C38.4086 20.9479 38.3104 21.1935 38.1631 21.39C37.9666 21.1444 37.7701 20.9479 37.5737 20.7515C35.8546 19.0324 33.4479 17.9519 30.7957 17.9519C30.5501 17.9519 30.2554 17.9519 30.0098 18.001C29.4695 16.8222 28.7328 15.7417 27.8487 14.8576C28.3399 14.1699 28.9784 13.6297 29.666 13.1876C30.5992 12.5982 31.6798 12.3035 32.8094 12.3035C34.4794 12.3035 36.0511 12.9912 37.1316 14.0717C38.2613 15.2014 38.8998 16.724 38.8998 18.3939C38.9489 19.2289 38.8016 20.0147 38.5069 20.7024Z" fill="#393567"/>
<path d="M48.723 17.1169H45.2358C44.5481 17.1169 43.9587 17.7063 43.9587 18.3939C43.9587 19.0815 44.5481 19.6709 45.2358 19.6709H48.723C49.4106 19.6709 50 19.0815 50 18.3939C49.9509 17.7063 49.4106 17.1169 48.723 17.1169Z" fill="#393567"/>
</g>
<defs>
<clipPath id="clip0">
<rect width="50" height="50" fill="white"/>
</clipPath>
</defs>
</svg>
