<?xml version="1.0" encoding="UTF-8"?>
<svg xmlns="http://www.w3.org/2000/svg" xmlns:xlink="http://www.w3.org/1999/xlink" width="50pt" height="50pt" viewBox="0 0 50 50" version="1.1">
<g id="surface1">
<path style=" stroke:none;fill-rule:nonzero;fill:rgb(87.843137%,42.352941%,45.882353%);fill-opacity:1;" d="M 10.351562 50 L 39.648438 50 C 42.070312 50 44.042969 48.027344 44.042969 45.605469 L 44.042969 14.648438 L 33.789062 14.648438 C 31.367188 14.648438 29.394531 12.675781 29.394531 10.253906 L 29.394531 0 L 10.351562 0 C 7.929688 0 5.957031 1.972656 5.957031 4.394531 L 5.957031 45.605469 C 5.957031 48.027344 7.929688 50 10.351562 50 Z M 16.210938 20.605469 L 33.789062 20.605469 C 34.597656 20.605469 35.253906 21.261719 35.253906 22.070312 C 35.253906 22.878906 34.597656 23.535156 33.789062 23.535156 L 16.210938 23.535156 C 15.402344 23.535156 14.746094 22.878906 14.746094 22.070312 C 14.746094 21.261719 15.402344 20.605469 16.210938 20.605469 Z M 16.210938 26.464844 L 33.789062 26.464844 C 34.597656 26.464844 35.253906 27.121094 35.253906 27.929688 C 35.253906 28.738281 34.597656 29.394531 33.789062 29.394531 L 16.210938 29.394531 C 15.402344 29.394531 14.746094 28.738281 14.746094 27.929688 C 14.746094 27.121094 15.402344 26.464844 16.210938 26.464844 Z M 16.210938 32.324219 L 33.789062 32.324219 C 34.597656 32.324219 35.253906 32.980469 35.253906 33.789062 C 35.253906 34.597656 34.597656 35.253906 33.789062 35.253906 L 16.210938 35.253906 C 15.402344 35.253906 14.746094 34.597656 14.746094 33.789062 C 14.746094 32.980469 15.402344 32.324219 16.210938 32.324219 Z M 16.210938 38.183594 L 27.929688 38.183594 C 28.738281 38.183594 29.394531 38.839844 29.394531 39.648438 C 29.394531 40.457031 28.738281 41.113281 27.929688 41.113281 L 16.210938 41.113281 C 15.402344 41.113281 14.746094 40.457031 14.746094 39.648438 C 14.746094 38.839844 15.402344 38.183594 16.210938 38.183594 Z M 16.210938 38.183594 "/>
<path style=" stroke:none;fill-rule:nonzero;fill:rgb(87.843137%,42.352941%,45.882353%);fill-opacity:1;" d="M 33.789062 11.71875 L 43.183594 11.71875 L 32.324219 0.859375 L 32.324219 10.253906 C 32.324219 11.0625 32.980469 11.71875 33.789062 11.71875 Z M 33.789062 11.71875 "/>
</g>
</svg>
