<svg width="50" height="50" viewBox="0 0 50 50" fill="none" xmlns="http://www.w3.org/2000/svg">
<path d="M33.8624 16.1375C31.6138 13.8889 28.4392 12.4338 25 12.4338C21.5609 12.4338 18.3862 13.8227 16.1376 16.1375C13.8889 18.3862 12.4339 21.5608 12.4339 25C12.4339 28.4391 13.8889 31.6137 16.1376 33.8624C18.3862 36.1111 21.5609 37.5661 25 37.5661C28.4392 37.5661 31.6138 36.1772 33.8624 33.8624C36.1111 31.6137 37.5661 28.4391 37.5661 25C37.5661 21.5608 36.1773 18.3862 33.8624 16.1375ZM31.4815 31.4815C29.828 33.1349 27.5132 34.127 25 34.127C22.4868 34.127 20.172 33.1349 18.5185 31.4815C16.8651 29.828 15.873 27.5132 15.873 25C15.873 22.4867 16.8651 20.1719 18.5185 18.5185C20.172 16.8651 22.4868 15.873 25 15.873C27.5132 15.873 29.828 16.8651 31.4815 18.5185C33.1349 20.1719 34.127 22.4867 34.127 25C34.127 27.5132 33.1349 29.828 31.4815 31.4815Z" fill="#FFC26E"/>
<path d="M48.2804 23.2805H43.1878C42.2619 23.2805 41.4683 24.0741 41.4683 25C41.4683 25.926 42.2619 26.7196 43.1878 26.7196H48.2804C49.2064 26.7196 50 25.926 50 25C50 24.0741 49.2064 23.2805 48.2804 23.2805Z" fill="#FFC26E"/>
<path d="M25 41.4683C24.0741 41.4683 23.2804 42.2619 23.2804 43.1878V48.2804C23.2804 49.2064 24.0741 50 25 50C25.9259 50 26.7196 49.2064 26.7196 48.2804V43.1878C26.7196 42.2619 25.9259 41.4683 25 41.4683Z" fill="#FFC26E"/>
<path d="M42.6587 40.2778L39.0212 36.6402C38.4259 35.9788 37.3016 35.9788 36.6402 36.6402C35.9789 37.3016 35.9789 38.3598 36.6402 39.0212L40.2778 42.6587C40.9392 43.3201 41.9974 43.3201 42.6587 42.6587C43.3201 41.9973 43.3201 40.9391 42.6587 40.2778Z" fill="#FFC26E"/>
<path d="M25 0C24.0741 0 23.2804 0.793651 23.2804 1.71958V6.81217C23.2804 7.73809 24.0741 8.53174 25 8.53174C25.9259 8.53174 26.7196 7.73809 26.7196 6.81217V1.71958C26.7196 0.793651 25.9259 0 25 0Z" fill="#FFC26E"/>
<path d="M42.7249 7.34125C42.0635 6.67987 41.0053 6.67987 40.3439 7.34125L36.7064 10.9788C36.045 11.6402 36.045 12.6984 36.7064 13.3598C37.3016 14.0211 38.4259 14.0211 39.0873 13.3598L42.7249 9.7222C43.3862 9.06082 43.3862 8.00262 42.7249 7.34125Z" fill="#FFC26E"/>
<path d="M6.81217 23.2805H1.71958C0.793651 23.2805 0 24.0741 0 25C0 25.926 0.727513 26.7196 1.71958 26.7196H6.81217C7.73809 26.7196 8.53174 25.926 8.53174 25C8.53174 24.0741 7.73809 23.2805 6.81217 23.2805Z" fill="#FFC26E"/>
<path d="M13.2937 36.6402C12.6984 35.9788 11.5741 35.9788 10.9127 36.6402L7.27515 40.2778C6.61377 40.9391 6.61377 41.9973 7.27515 42.6587C7.93652 43.3201 8.99472 43.3201 9.6561 42.6587L13.2937 39.0212C13.955 38.3598 13.955 37.3016 13.2937 36.6402Z" fill="#FFC26E"/>
<path d="M13.2937 10.9788L9.6561 7.34125C8.99472 6.67987 7.93652 6.67987 7.27515 7.34125C6.61377 8.00262 6.61377 9.06082 7.27515 9.7222L10.9127 13.3598C11.5741 14.0211 12.6323 14.0211 13.2937 13.3598C13.955 12.6984 13.955 11.6402 13.2937 10.9788Z" fill="#FFC26E"/>
</svg>
