<svg width="20" height="20" viewBox="0 0 20 20" fill="none" xmlns="http://www.w3.org/2000/svg">
<g clip-path="url(#clip0)">
<path d="M11.8474 2.20507C11.3855 1.52587 10.978 0.901005 10.5977 0.330479C10.5433 0.248975 10.4618 0.167472 10.3803 0.113136C10.0543 -0.104207 9.61962 0.0044642 9.40227 0.330479C9.04909 0.901005 8.64157 1.4987 8.15255 2.20507C6.00629 5.35654 2.80048 10.1109 2.80048 12.8277C2.80048 14.811 3.61551 16.6041 4.91957 17.9081C6.22363 19.185 8.01671 20 9.99997 20C11.9832 20 13.7763 19.185 15.0804 17.881C16.3844 16.5769 17.1995 14.7838 17.1995 12.8006C17.1995 10.0838 13.9936 5.35654 11.8474 2.20507ZM14.1023 16.9029C13.0428 17.9625 11.6029 18.5873 9.99997 18.5873C8.39706 18.5873 6.95716 17.9353 5.89762 16.9029C4.83807 15.8434 4.21321 14.4035 4.21321 12.8006C4.21321 10.5184 7.28318 5.98141 9.32077 2.96577C9.56528 2.61258 9.78262 2.2594 9.99997 1.96055C10.2173 2.2594 10.4347 2.61258 10.6792 2.96577C12.7168 6.00857 15.7867 10.5184 15.7867 12.8006C15.7867 14.4035 15.1347 15.8434 14.1023 16.9029Z" fill="#393567"/>
<path d="M14.211 12.3114C13.8306 12.2842 13.5046 12.5831 13.4775 12.9634C13.4503 13.5611 13.2601 14.1317 12.9613 14.6207C12.6624 15.1097 12.2277 15.5444 11.7115 15.8161C11.3855 16.0062 11.2497 16.4409 11.4399 16.7669C11.6572 17.1473 12.0919 17.256 12.4179 17.0658C13.1514 16.6583 13.7491 16.0606 14.1567 15.3814C14.5913 14.7022 14.8359 13.8871 14.863 13.0449C14.8902 12.6646 14.5913 12.3386 14.211 12.3114Z" fill="#393567"/>
</g>
<defs>
<clipPath id="clip0">
<rect width="20" height="20" fill="white"/>
</clipPath>
</defs>
</svg>
