<svg width="36" height="50" viewBox="0 0 36 50" fill="none" xmlns="http://www.w3.org/2000/svg">
<path d="M17.9992 0C8.43188 0 0.648407 7.78461 0.648407 17.3522C0.648407 26.5619 16.3911 48.0789 17.0614 48.99L17.687 49.8414C17.7602 49.9415 17.8767 50 17.9992 50C18.1237 50 18.2394 49.9415 18.3134 49.8414L18.9386 48.99C19.6093 48.0789 35.3516 26.5619 35.3516 17.3522C35.3516 7.78461 27.5669 0 17.9992 0ZM17.9992 11.1367C21.4273 11.1367 24.2148 13.9243 24.2148 17.3522C24.2148 20.7783 21.4271 23.5678 17.9992 23.5678C14.5732 23.5678 11.7837 20.7783 11.7837 17.3522C11.7837 13.9243 14.5731 11.1367 17.9992 11.1367Z" fill="#F68E00" fill-opacity="0.75"/>
</svg>
