<svg width="20" height="20" viewBox="0 0 20 20" fill="none" xmlns="http://www.w3.org/2000/svg">
<g clip-path="url(#clip0)">
<path d="M15.6 0.4C15.6 0.780001 15.74 0.800001 17.4 0.800001H19.2V2V3.2H18.4C17.74 3.2 17.6 3.26 17.6 3.6C17.6 3.94 17.74 4 18.4 4H19.2V5.2V6.4H18.4C17.74 6.4 17.6 6.46 17.6 6.8C17.6 7.14 17.74 7.2 18.4 7.2H19.2V8.4V9.6H17.4C15.74 9.6 15.6 9.62 15.6 10C15.6 10.38 15.74 10.4 17.4 10.4H19.2V11.6V12.8H18.4C17.74 12.8 17.6 12.86 17.6 13.2C17.6 13.54 17.74 13.6 18.4 13.6H19.2V14.8V16H18.4C17.74 16 17.6 16.06 17.6 16.4C17.6 16.74 17.74 16.8 18.4 16.8H19.2V18V19.2H17.4C15.74 19.2 15.6 19.22 15.6 19.6C15.6 19.98 15.74 20 17.8 20H20V10V0H17.8C15.74 0 15.6 0.0200005 15.6 0.4Z" fill="#393567"/>
<path d="M4.00002 3.92002C4.00002 5.96002 3.60002 7.84002 2.76002 9.66002C2.12002 11.08 1.92002 11.8 1.74002 13.4L1.52002 15.4L1.06002 14.96C0.700017 14.62 0.540017 14.58 0.360017 14.76C0.160017 14.96 0.320017 15.22 1.06002 15.96L2.00002 16.9L2.94002 15.96C3.68002 15.22 3.84002 14.96 3.64002 14.76C3.46002 14.58 3.30002 14.62 2.90002 15L2.40002 15.46V14.82C2.40002 13.4 2.86002 11.24 3.40002 10.18C4.26002 8.48002 4.60002 7.12002 4.74002 4.84002C4.86002 2.84002 4.86002 2.80002 4.44002 2.80002C4.04002 2.80002 4.00002 2.90002 4.00002 3.92002Z" fill="#393567"/>
<path d="M8.40004 3.92002C8.40004 5.96002 8.00004 7.84002 7.16004 9.66002C6.52004 11.08 6.32004 11.8 6.14004 13.4L5.92004 15.4L5.46004 14.96C5.10004 14.62 4.94004 14.58 4.76004 14.76C4.56004 14.96 4.72004 15.22 5.46004 15.96L6.40004 16.9L7.34004 15.96C8.08004 15.22 8.24004 14.96 8.04004 14.76C7.86004 14.58 7.70004 14.62 7.30004 15L6.80004 15.46V14.82C6.80004 13.4 7.26004 11.24 7.80004 10.18C8.66004 8.48002 9.00004 7.12002 9.14004 4.84002C9.26004 2.84002 9.26004 2.80002 8.84004 2.80002C8.44004 2.80002 8.40004 2.90002 8.40004 3.92002Z" fill="#393567"/>
<path d="M12.8001 3.92002C12.8001 5.96002 12.4001 7.84002 11.5601 9.66002C10.9201 11.08 10.7201 11.8 10.5401 13.4L10.3201 15.4L9.86007 14.96C9.50007 14.62 9.34007 14.58 9.16007 14.76C8.96007 14.96 9.12007 15.22 9.86007 15.96L10.8001 16.9L11.7401 15.96C12.4801 15.22 12.6401 14.96 12.4401 14.76C12.2601 14.58 12.1001 14.62 11.7001 15L11.2001 15.46V14.82C11.2001 13.4 11.6601 11.24 12.2001 10.18C13.0601 8.48002 13.4001 7.12002 13.5401 4.84002C13.6601 2.84002 13.6601 2.80002 13.2401 2.80002C12.8401 2.80002 12.8001 2.90002 12.8001 3.92002Z" fill="#393567"/>
</g>
<defs>
<clipPath id="clip0">
<rect width="20" height="20" fill="white"/>
</clipPath>
</defs>
</svg>
