<svg width="50" height="50" viewBox="0 0 50 50" fill="none" xmlns="http://www.w3.org/2000/svg">
<g clip-path="url(#clip0)">
<path d="M45.6897 33.9153L43.3905 32.5879L44.7417 32.0121C46.0763 31.4434 46.6959 29.9037 46.1274 28.5691C45.5602 27.2385 44.0163 26.617 42.6846 27.1837L37.7051 29.3053L31.9081 25.9583C31.9955 25.3316 31.9988 24.6922 31.9081 24.0415L33.2702 23.2552C33.6205 23.0529 33.7405 22.605 33.5383 22.2546C33.336 21.9042 32.8879 21.7845 32.5377 21.9865L30.7307 23.0298C30.4546 23.1893 30.3133 23.5092 30.3815 23.8208C30.5527 24.6023 30.5527 25.3974 30.3815 26.1791C30.3133 26.4906 30.4545 26.8106 30.7307 26.9702L37.2894 30.7568C37.4888 30.8719 37.7309 30.8866 37.9426 30.7963L43.2584 28.5314C43.8467 28.2811 44.5291 28.5555 44.7796 29.1433C45.0306 29.7328 44.7572 30.4132 44.1674 30.6643L41.4669 31.815C40.9127 32.051 40.8656 32.8216 41.3878 33.1232L44.9572 35.1839C45.5107 35.5035 45.7009 36.214 45.3814 36.7675C45.0683 37.3097 44.3631 37.5183 43.7979 37.1918L40.2288 35.1309C39.7064 34.8291 39.0627 35.2559 39.1354 35.8535L39.4892 38.7676C39.5266 39.0749 39.4419 39.3785 39.251 39.6223C39.0601 39.8661 38.7856 40.0208 38.4788 40.058C37.8363 40.1371 37.264 39.6749 37.1877 39.0469L36.4912 33.3105C36.4634 33.0819 36.3297 32.8797 36.1303 32.7645L29.5695 28.9767C29.2932 28.8173 28.9455 28.855 28.7097 29.0699C28.1249 29.6035 27.4191 30.0119 26.6691 30.251C26.3654 30.3477 26.1591 30.63 26.1591 30.9488V38.5215C26.1591 38.7518 26.2674 38.9687 26.4515 39.1071L31.0712 42.5784C31.5832 42.9632 31.6866 43.6893 31.3013 44.2016C30.9134 44.7182 30.1868 44.8142 29.6784 44.4319L27.3316 42.6684C26.8482 42.3054 26.1591 42.653 26.1591 43.2539V47.3755C26.1591 48.0147 25.6391 48.5348 24.9998 48.5348C24.3606 48.5348 23.8406 48.0148 23.8406 47.3755V43.2539C23.8406 42.6507 23.1495 42.3065 22.6681 42.6684L20.3213 44.4319C19.4922 45.0541 18.3333 44.3564 18.4772 43.3421C18.5206 43.0356 18.681 42.7644 18.9285 42.5784L23.5482 39.1072C23.7323 38.9688 23.8406 38.7519 23.8406 38.5216V30.9488C23.8406 30.63 23.6344 30.3478 23.3306 30.251C22.5806 30.0119 21.8749 29.6036 21.2901 29.0699C21.0542 28.8549 20.7066 28.8172 20.4301 28.9767L13.8693 32.7645C13.6699 32.8797 13.5362 33.0819 13.5084 33.3105L12.812 39.047C12.7358 39.6747 12.1653 40.1356 11.5213 40.0581C10.8856 39.981 10.433 39.4037 10.5103 38.7676L10.8641 35.8535C10.9368 35.2554 10.2932 34.8293 9.77076 35.1309L6.20144 37.1917C5.63699 37.5179 4.93143 37.3102 4.61795 36.7674C4.29842 36.2139 4.48875 35.5035 5.04227 35.1838L8.61149 33.1231C9.13297 32.822 9.08737 32.0512 8.53239 31.8149L5.83181 30.6641C5.24236 30.4131 4.96863 29.7329 5.21971 29.1432C5.47098 28.5538 6.15095 28.2802 6.7406 28.5312L12.0568 30.7962C12.2684 30.8864 12.5105 30.8718 12.71 30.7567L19.2687 26.9701C19.5449 26.8106 19.6862 26.4907 19.6179 26.179C19.4468 25.3978 19.4466 24.6025 19.6179 23.8208C19.6862 23.5093 19.5449 23.1893 19.2687 23.0297L12.71 19.2431C12.5107 19.128 12.2686 19.1134 12.0568 19.2036L6.7406 21.4686C6.14715 21.721 5.46951 21.4427 5.21981 20.8565C4.96922 20.2685 5.24383 19.5861 5.83181 19.3355L8.53229 18.1849C9.08737 17.9484 9.13288 17.1778 8.61149 16.8767L5.04227 14.8159C4.48739 14.4956 4.29764 13.7873 4.61795 13.2324C4.93807 12.6777 5.64656 12.4875 6.20154 12.8081L9.77096 14.8689C10.2945 15.171 10.9368 14.7428 10.8643 14.1463L10.5105 11.2321C10.4332 10.5962 10.8853 10.0188 11.5217 9.94166C12.156 9.86432 12.7348 10.3152 12.8122 10.9528L13.5086 16.6892C13.5364 16.9178 13.6701 17.12 13.8695 17.2352L20.4303 21.023C20.7068 21.1825 21.0544 21.1448 21.2903 20.9298C21.8749 20.3964 22.5806 19.9879 23.3309 19.7487C23.6346 19.652 23.8408 19.3697 23.8408 19.0509V11.4782C23.8408 11.2479 23.7325 11.031 23.5484 10.8926L18.9287 7.42136C18.4178 7.03737 18.3144 6.30915 18.6984 5.79812C19.0831 5.28592 19.8093 5.18269 20.3214 5.56775L22.6683 7.33122C23.1507 7.69343 23.8408 7.34802 23.8408 6.74568V2.62421C23.8408 1.98505 24.3607 1.46494 25 1.46494C25.6392 1.46494 26.1593 1.98495 26.1593 2.62421V6.74587C26.1593 7.34909 26.8503 7.69333 27.3318 7.33142L29.6784 5.56804C30.1896 5.18426 30.9179 5.28758 31.3017 5.79832C31.6858 6.30935 31.5824 7.03757 31.0714 7.42155L26.4518 10.8928C26.2677 11.0312 26.1594 11.2481 26.1594 11.4784V13.7417C26.1594 14.1462 26.4872 14.4742 26.8918 14.4742C27.2964 14.4742 27.6242 14.1462 27.6242 13.7417V11.8442L31.9514 8.59264C33.1083 7.72331 33.3422 6.07498 32.4728 4.91824C31.604 3.762 29.9558 3.52782 28.7986 4.39676L27.6243 5.27928V2.62421C27.6243 1.17724 26.4471 0 25.0001 0C23.5532 0 22.376 1.17724 22.376 2.62421V5.27928L21.2013 4.39676C20.0415 3.52528 18.3983 3.75868 17.527 4.91834C16.6578 6.07517 16.8918 7.7235 18.0485 8.59264L22.3758 11.8441V18.5384C21.7846 18.7799 21.2236 19.1045 20.7182 19.4978L14.9187 16.1494L14.2663 10.7764C14.0915 9.33473 12.7819 8.31169 11.345 8.48756C9.90524 8.66217 8.88131 9.96891 9.05622 11.4088L9.23327 12.8671L6.93415 11.5397C5.67859 10.8143 4.07459 11.2437 3.3494 12.5002C2.62431 13.7562 3.0536 15.3597 4.30995 16.0848L6.60906 17.4122L5.25779 17.988C3.92655 18.5552 3.30507 20.0996 3.87215 21.4308C4.44129 22.7667 5.98289 23.3842 7.31482 22.8164L12.2945 20.6948L18.0914 24.0418C18.0051 24.6617 17.9998 25.301 18.0915 25.9585L12.2945 29.3054L7.31491 27.1839C5.98103 26.6154 4.4408 27.2343 3.87215 28.5694C3.3037 29.9038 3.92303 31.4437 5.2577 32.0122L6.60906 32.588L4.30995 33.9154C3.05692 34.6387 2.62607 36.2468 3.3494 37.5C4.06942 38.7474 5.67439 39.188 6.93406 38.4606L9.23327 37.1331L9.05622 38.5913C8.97174 39.2871 9.16325 39.9742 9.59547 40.526C11.0346 42.363 13.9854 41.5382 14.2662 39.2239L14.9186 33.8506L20.718 30.5023C21.2236 30.8955 21.7846 31.2201 22.3757 31.4617V38.156L18.0485 41.4076C16.8916 42.2767 16.6577 43.9249 17.5269 45.0818C18.3982 46.2416 20.0413 46.4744 21.2012 45.6034L22.3756 44.7208V47.3759C22.3756 48.8229 23.5528 50.0001 24.9997 50.0001C26.4467 50.0001 27.6239 48.8229 27.6239 47.3759V44.7209L28.7982 45.6033C29.9682 46.4828 31.6122 46.2272 32.4725 45.0819C33.3439 43.9222 33.1106 42.2789 31.951 41.4076L27.6238 38.156V31.4617C28.2149 31.2201 28.776 30.8956 29.2815 30.5023L35.0809 33.8506L35.7334 39.2238C36.0153 41.5478 38.9721 42.3537 40.404 40.526C40.8364 39.9743 41.0279 39.2871 40.9433 38.5913L40.7663 37.1331L43.0653 38.4605C44.3191 39.1848 45.9268 38.753 46.65 37.5C47.3735 36.2468 46.9428 34.6388 45.6897 33.9153Z" fill="#393567"/>
<path d="M44.7421 17.9882L43.3909 17.4125L45.6901 16.0849C46.9461 15.3597 47.3758 13.7565 46.6505 12.5004C45.9255 11.2442 44.322 10.8144 43.066 11.5398L40.7667 12.8673L40.9438 11.4091C41.1183 9.96934 40.095 8.66221 38.6551 8.48751C37.215 8.31212 35.9084 9.33633 35.7336 10.7763L35.0811 16.1494L29.2816 19.4977C28.7762 19.1047 28.2152 18.7799 27.624 18.5383V17.1598C27.624 16.7553 27.2962 16.4274 26.8916 16.4274C26.487 16.4274 26.1592 16.7553 26.1592 17.1598V19.0509C26.1592 19.3698 26.3653 19.6519 26.6691 19.7488C27.4194 19.9879 28.125 20.3963 28.7098 20.9298C28.9454 21.1447 29.2931 21.1826 29.5697 21.023L36.1305 17.2352C36.3299 17.1201 36.4636 16.9178 36.4914 16.6892L37.1879 10.9528C37.2644 10.3213 37.8366 9.86426 38.4785 9.9417C39.1142 10.0188 39.5668 10.596 39.4895 11.2322L39.1357 14.1464C39.1022 14.4219 39.2274 14.6927 39.4589 14.8457C39.6905 14.9988 39.9887 15.0077 40.2291 14.8689L43.7987 12.8081C44.3534 12.4877 45.0615 12.6774 45.382 13.2325C45.7024 13.7874 45.5126 14.4957 44.9577 14.816L41.3884 16.8767C41.1481 17.0155 41.0068 17.2782 41.0236 17.5552C41.0404 17.8323 41.2123 18.076 41.4676 18.1848L44.1681 19.3354C44.7561 19.586 45.0307 20.2684 44.7802 20.8564C44.5299 21.4435 43.8517 21.7207 43.2592 21.4685L37.9432 19.2036C37.7317 19.1134 37.4895 19.1279 37.29 19.243L35.4984 20.2774C35.1481 20.4796 35.0281 20.9276 35.2303 21.278C35.4325 21.6284 35.8806 21.7481 36.2309 21.546L37.7057 20.6946L42.6854 22.8163C44.0165 23.3831 45.5581 22.7681 46.128 21.4306C46.695 20.0998 46.0734 18.5553 44.7421 17.9882Z" fill="#393567"/>
<path d="M24.9999 21.8083C23.24 21.8083 21.8082 23.24 21.8082 25C21.8082 26.7599 23.24 28.1918 24.9999 28.1918C26.7599 28.1918 28.1917 26.7599 28.1917 25C28.1917 23.24 26.7599 21.8083 24.9999 21.8083ZM24.9998 26.7268C24.0477 26.7268 23.2731 25.9522 23.2731 25C23.2731 24.0478 24.0477 23.2732 24.9998 23.2732C25.9521 23.2732 26.7267 24.0478 26.7267 25C26.7267 25.9521 25.9521 26.7268 24.9998 26.7268Z" fill="#393567"/>
</g>
<defs>
<clipPath id="clip0">
<rect width="50" height="50" fill="white"/>
</clipPath>
</defs>
</svg>
