<svg width="50" height="43" viewBox="0 0 50 43" fill="none" xmlns="http://www.w3.org/2000/svg">
<path d="M46.5849 12.0064C44.4504 9.92529 41.5155 8.59125 38.3138 8.59125C37.9402 8.59125 37.5667 8.59125 37.1932 8.64461C36.0726 6.18997 34.3116 4.16222 32.1772 2.66809C29.7225 0.960512 26.7876 0 23.6926 0C20.0107 0 16.5955 1.33404 13.9808 3.57524C11.6329 5.60299 9.92529 8.32444 9.17823 11.5261C6.77695 11.793 4.64248 12.8602 3.04162 14.461C1.17396 16.3287 0 18.8901 0 21.7716C0 24.6531 1.17396 27.2145 3.04162 29.0822C4.90929 30.9498 7.47065 32.1238 10.3522 32.1238H20.5977L17.2892 40.6083C17.0224 41.302 17.3426 42.1024 18.0896 42.3693C18.6766 42.5827 19.2636 42.4226 19.6371 41.9424L28.2284 32.0704H38.2604C41.5155 32.0704 44.4504 30.7364 46.5849 28.6553C48.7193 26.5208 50 23.5859 50 20.3308C50 17.0758 48.666 14.1409 46.5849 12.0064ZM26.6809 29.7225C26.6275 29.7759 26.5742 29.8292 26.5208 29.8826L22.6254 34.3116L23.7994 31.27C23.8527 31.2166 23.8527 31.1099 23.9061 31.0566L24.0128 30.7898C24.1195 30.6297 24.1729 30.4162 24.1729 30.2028C24.1729 29.4557 23.5326 28.8154 22.7855 28.8154H20.651L25.2401 19.2636H28.762L25.1868 25.2401C25.0267 25.4536 24.9733 25.7204 24.9733 25.9872C24.9733 26.7343 25.6137 27.3746 26.3607 27.3746H28.6553L26.6809 29.7225ZM44.6638 26.7343C43.0096 28.3885 40.7684 29.349 38.3138 29.349H30.6297L32.6574 27.0544C33.1377 26.4674 33.0843 25.6137 32.5507 25.1334C32.2839 24.92 31.9637 24.8132 31.6435 24.8132H28.762L32.3372 18.73C32.7108 18.0896 32.4973 17.2359 31.857 16.8623C31.6435 16.7556 31.3767 16.6489 31.1633 16.6489H24.333C23.746 16.6489 23.2657 17.0224 23.0523 17.5027L17.3426 29.349H10.3522C8.27108 29.349 6.35005 28.4952 5.01601 27.1078C3.6286 25.7204 2.82818 23.8527 2.82818 21.7716C2.82818 19.6905 3.68196 17.7695 5.01601 16.4354C6.40342 15.048 8.27108 14.1942 10.3522 14.1942C10.5656 14.1942 10.7791 14.1409 10.9392 14.0341H10.9925C11.3127 13.8207 11.5261 13.5005 11.5795 13.0736C12.0064 10.0854 13.5539 7.52401 15.6884 5.70971C17.8228 3.89541 20.5977 2.77481 23.5859 2.77481C26.1473 2.77481 28.5486 3.57524 30.5229 4.96265C32.1238 6.08324 33.4578 7.52401 34.365 9.28495C34.0448 9.39167 33.7247 9.55176 33.4045 9.65848C31.9104 10.3522 30.5763 11.3127 29.4557 12.5934C28.9755 13.1804 29.0288 14.0342 29.5624 14.5144C30.1494 14.9947 31.0032 14.9413 31.4835 14.4077C32.3372 13.4472 33.3511 12.7001 34.5251 12.1665C35.6457 11.6329 36.9264 11.3661 38.207 11.3661C40.715 11.3661 42.9562 12.3799 44.5571 13.9808C46.2113 15.635 47.1718 17.8762 47.1718 20.3308C47.2786 22.8388 46.2647 25.08 44.6638 26.7343Z" fill="#393567"/>
</svg>
