<svg width="20" height="20" viewBox="0 0 20 20" fill="none" xmlns="http://www.w3.org/2000/svg">
<path d="M11.6 14.0235C11.5294 13.7882 11.4353 13.5529 11.3177 13.3176C11.2 13.0823 11.0353 12.8941 10.8706 12.7059C10.6824 12.5176 10.4941 12.3529 10.2824 12.2117L10.0706 12.0706V11.8353V8.75292C10.0706 8.16469 9.74118 7.64704 9.17648 7.43527C9.01177 7.36469 8.82354 7.31763 8.6353 7.31763C8.44707 7.31763 8.25883 7.36469 8.09412 7.43527C7.55295 7.67057 7.20001 8.16469 7.20001 8.75292V11.8353V12.0706L6.98824 12.2117C6.77648 12.3529 6.56471 12.5176 6.40001 12.7059C6.21177 12.8941 6.07059 13.1059 5.95295 13.3176C5.8353 13.5294 5.74118 13.7882 5.67059 14.0235C5.60001 14.2588 5.57648 14.5176 5.57648 14.7764C5.57648 15.1764 5.67059 15.5764 5.81177 15.9529C5.97648 16.3294 6.18824 16.6588 6.47059 16.9412C6.75295 17.2235 7.08236 17.4588 7.45883 17.6C7.81177 17.7412 8.21177 17.8353 8.6353 17.8353C9.0353 17.8353 9.4353 17.7412 9.81177 17.6C10.1882 17.4353 10.5177 17.2235 10.8 16.9412C11.0824 16.6588 11.3177 16.3294 11.4588 15.9529C11.6 15.6 11.6941 15.2 11.6941 14.7764C11.6941 14.5176 11.6706 14.2588 11.6 14.0235ZM10.3294 15.5059C10.2353 15.7176 10.0941 15.9294 9.92942 16.0941C9.76471 16.2588 9.55295 16.4 9.34118 16.4941C9.12942 16.5882 8.89412 16.6353 8.6353 16.6353C8.37648 16.6353 8.14118 16.5882 7.92942 16.4941C7.71765 16.4 7.50589 16.2588 7.34118 16.0941C7.17648 15.9294 7.0353 15.7176 6.94118 15.5059C6.84707 15.2941 6.80001 15.0588 6.80001 14.8C6.80001 14.6353 6.82354 14.4706 6.84707 14.3294C6.89412 14.1647 6.94118 14.0235 7.01177 13.9059C7.08236 13.7647 7.17648 13.647 7.29412 13.5294C7.38824 13.4117 7.52942 13.3176 7.64707 13.2235L8.14118 12.9176L8.42354 12.7294V12.4V11.8117V8.75292C8.42354 8.72939 8.42354 8.70586 8.44707 8.68233C8.44707 8.6588 8.47059 8.63527 8.49412 8.61174L8.51765 8.58821C8.54118 8.58821 8.54118 8.56469 8.56471 8.56469C8.58824 8.56469 8.61177 8.54116 8.65883 8.54116C8.68236 8.54116 8.72942 8.54116 8.75295 8.56469C8.77648 8.56469 8.77648 8.58821 8.80001 8.58821L8.82354 8.61174C8.84707 8.63527 8.8706 8.6588 8.8706 8.68233C8.8706 8.70586 8.89412 8.72939 8.89412 8.75292V11.8353V12.4235V12.7529L9.17648 12.9412L9.6706 13.247C9.81177 13.3412 9.92942 13.4353 10.0235 13.5529C10.1412 13.6706 10.2118 13.7882 10.3059 13.9294C10.3765 14.0706 10.4235 14.2117 10.4706 14.3529C10.5177 14.4941 10.5177 14.6588 10.5177 14.8235C10.4706 15.0588 10.4235 15.2941 10.3294 15.5059Z" fill="#673535"/>
<path d="M14.9647 2.77661H13.1765C12.8471 2.80014 12.5647 3.05896 12.5647 3.38838C12.5647 3.71779 12.8235 4.00014 13.1765 4.00014H14.9647C15.2941 4.00014 15.5765 3.74132 15.5765 3.38838C15.5765 3.05896 15.3176 2.77661 14.9647 2.77661Z" fill="#673535"/>
<path d="M14.9647 6.94116H13.1765C12.8471 6.94116 12.5647 7.19999 12.5647 7.55293C12.5647 7.88234 12.8471 8.16469 13.1765 8.16469H14.9647C15.2941 8.16469 15.5765 7.90587 15.5765 7.55293C15.5765 7.22351 15.3176 6.94116 14.9647 6.94116Z" fill="#673535"/>
<path d="M15.9059 9.0354H13.1765C12.8471 9.0354 12.5647 9.29422 12.5647 9.64716C12.5647 9.97658 12.8235 10.2589 13.1765 10.2589H15.9059C16.2353 10.2589 16.5176 10.0001 16.5176 9.64716C16.4941 9.29422 16.2353 9.0354 15.9059 9.0354Z" fill="#673535"/>
<path d="M13.6706 13.5529C13.5294 13.0824 13.3647 12.6824 13.153 12.3059C13.0118 12.0235 12.8235 11.7647 12.6118 11.5059C12.4706 11.3412 12.3059 11.1765 12.1647 11.0118V3.52941C12.1647 3.05882 12.0706 2.58824 11.9059 2.18824C11.3412 0.847059 10.0941 0 8.63531 0C7.17648 0 5.92942 0.847059 5.36472 2.18824C5.20001 2.61176 5.10589 3.05882 5.10589 3.52941V11.0353C4.94119 11.1765 4.80001 11.3412 4.65883 11.5294C4.44707 11.7882 4.28236 12.0471 4.11766 12.3294C3.90589 12.7059 3.74118 13.1059 3.64707 13.5294C3.52942 13.9529 3.48236 14.3765 3.48236 14.8235C3.48236 15.5294 3.62354 16.1882 3.88236 16.8C4.14119 17.4353 4.54119 18 5.01177 18.4706C5.48236 18.9412 6.04707 19.3176 6.68236 19.6C7.29413 19.8588 7.95295 20 8.65884 20C10.0941 20 11.3883 19.4118 12.3059 18.4941C12.7765 18.0235 13.153 17.4588 13.4353 16.8235C13.6941 16.2118 13.8353 15.5529 13.8353 14.8471C13.8353 14.4 13.7883 13.9765 13.6706 13.5529ZM12.2824 16.3059C12.0941 16.7765 11.7883 17.2235 11.4118 17.6C10.7059 18.3059 9.69413 18.7529 8.61178 18.7529C8.0706 18.7529 7.55295 18.6353 7.10589 18.4471C6.63531 18.2588 6.18825 17.9529 5.81178 17.5765C5.4353 17.2 5.15295 16.7765 4.94119 16.2824C4.75295 15.8118 4.6353 15.2941 4.6353 14.7765C4.6353 14.4235 4.68236 14.0941 4.75295 13.7882C4.82354 13.4588 4.96472 13.1529 5.12942 12.8706C5.24707 12.6588 5.38825 12.4471 5.52942 12.2588C5.69413 12.0706 5.85883 11.9059 6.04707 11.7412L6.25883 11.5529V11.2706V3.52941C6.25883 3.22353 6.32942 2.91765 6.42354 2.63529C6.54119 2.37647 6.68236 2.14118 6.8706 1.92941L6.91766 1.88235C7.12942 1.67059 7.38825 1.48235 7.6706 1.36471C7.95295 1.24706 8.23531 1.2 8.56472 1.2C8.8706 1.2 9.17649 1.27059 9.45884 1.36471C9.74119 1.48235 10 1.64706 10.2118 1.88235L10.2588 1.92941C10.4471 2.14118 10.6118 2.37647 10.7059 2.63529C10.8235 2.91765 10.8706 3.2 10.8706 3.52941V11.3176V11.6L11.0824 11.7882C11.2706 11.9529 11.4353 12.1176 11.6 12.3059C11.7412 12.4941 11.8824 12.7059 12 12.9176C12.1647 13.2 12.2824 13.5294 12.3765 13.8353C12.4471 14.1412 12.4941 14.4706 12.4941 14.8235C12.5883 15.3412 12.4706 15.8588 12.2824 16.3059Z" fill="#673535"/>
<path d="M15.9059 4.87061H13.1765C12.8471 4.87061 12.5647 5.12943 12.5647 5.48237C12.5647 5.81178 12.8235 6.09413 13.1765 6.09413H15.9059C16.2353 6.09413 16.5176 5.83531 16.5176 5.48237C16.4941 5.12943 16.2353 4.87061 15.9059 4.87061Z" fill="#673535"/>
</svg>
