<svg width="20" height="20" viewBox="0 0 20 20" fill="none" xmlns="http://www.w3.org/2000/svg">
<path d="M16.7397 14.7931C16.2531 14.3065 15.5961 14.0145 14.8662 14.0145C14.8419 14.0145 14.8176 14.0145 14.8176 14.0145H7.98057C7.63993 14.0145 7.34796 14.2822 7.34796 14.6471C7.34796 15.0121 7.6156 15.2797 7.98057 15.2797H14.8176C14.8419 15.2797 14.8419 15.2797 14.8662 15.2797C15.2555 15.2797 15.5961 15.4257 15.8395 15.6934C16.0828 15.9367 16.2531 16.3016 16.2531 16.6666C16.2531 17.0559 16.1071 17.3965 15.8395 17.6398C15.5961 17.9075 15.2312 18.0535 14.8662 18.0535C14.4769 18.0535 14.1363 17.9075 13.893 17.6398C13.6497 17.3965 13.4794 17.0316 13.4794 16.6666C13.4794 16.326 13.1874 16.034 12.8468 16.034C12.5061 16.034 12.2141 16.326 12.2141 16.6666C12.2141 17.3965 12.5061 18.0535 12.9927 18.5401C13.4794 19.0267 14.1363 19.3187 14.8662 19.3187C15.5961 19.3187 16.2531 19.0267 16.7397 18.5401C17.2263 18.0535 17.5183 17.3965 17.5183 16.6666C17.5183 15.9367 17.2263 15.2797 16.7397 14.7931Z" fill="#393567"/>
<path d="M18.6131 5.47446C17.7616 4.62288 16.5693 4.0876 15.2555 4.0876C15.1338 4.0876 14.9878 4.0876 14.8662 4.11193C14.4039 3.1387 13.7226 2.33578 12.871 1.75183C11.8978 1.07057 10.7056 0.681274 9.46472 0.681274C7.98054 0.681274 6.618 1.21655 5.57178 2.1168C4.6472 2.91972 3.96594 3.99028 3.64964 5.25548C2.70073 5.37714 1.84915 5.81509 1.21654 6.4477C0.462287 7.20196 0 8.24818 0 9.39174C0 10.5353 0.462287 11.5815 1.21654 12.3358C1.9708 13.1144 3.01703 13.5767 4.18492 13.5767H15.2555C16.5693 13.5767 17.7372 13.0414 18.6131 12.1898C19.4647 11.3382 20 10.146 20 8.83213C20 7.51826 19.4647 6.35037 18.6131 5.47446ZM17.6399 11.3139C17.0073 11.9465 16.1314 12.3358 15.1825 12.3358H4.18492C3.382 12.3358 2.65207 12.0195 2.11679 11.4842C1.58151 10.9489 1.26521 10.219 1.26521 9.41607C1.26521 8.58882 1.58151 7.85889 2.11679 7.34794C2.65207 6.81266 3.382 6.49636 4.18492 6.49636C4.28224 6.49636 4.40389 6.47203 4.47689 6.42337C4.62287 6.32604 4.72019 6.18006 4.74453 6.00974C4.91484 4.86619 5.49878 3.84429 6.32603 3.1387C7.15329 2.4331 8.24818 1.99514 9.41606 1.99514C10.4136 1.99514 11.3382 2.31144 12.1168 2.84672C12.7007 3.26035 13.2117 3.79563 13.5523 4.45256C13.455 4.50123 13.3577 4.52556 13.2603 4.57422C12.6521 4.84186 12.1168 5.25548 11.6545 5.7421C11.4355 6.00974 11.4599 6.39904 11.7032 6.61801C11.9708 6.83699 12.3601 6.81266 12.5791 6.56935C12.9197 6.20439 13.309 5.91242 13.747 5.69344C14.1849 5.49879 14.6715 5.37714 15.1825 5.37714C16.1557 5.37714 17.0073 5.76643 17.6399 6.39904C18.2725 7.03164 18.6618 7.90755 18.6618 8.85646C18.6618 9.82969 18.2725 10.6813 17.6399 11.3139Z" fill="#393567"/>
</svg>
