<svg width="20" height="20" viewBox="0 0 20 20" fill="none" xmlns="http://www.w3.org/2000/svg">
<path d="M16.9797 3.48986C15.1523 1.73859 12.7157 0.647217 10 0.647217C7.2335 0.647217 4.74619 1.76397 2.91878 3.566C1.11675 5.36803 0 7.85534 0 10.5965V10.6472C0 11.0025 0.304568 11.3071 0.659898 11.3071C1.01523 11.3071 1.3198 11.0025 1.3198 10.6472C1.3198 10.1904 1.49746 9.75889 1.82741 9.45432C2.13198 9.14975 2.56345 8.94671 3.0203 8.94671C3.47716 8.94671 3.90863 9.12437 4.2132 9.45432C4.51777 9.75889 4.72081 10.1904 4.72081 10.6472C4.72081 11.0025 5.02538 11.3071 5.38071 11.3071C5.73604 11.3071 6.04061 11.0025 6.04061 10.6472C6.04061 10.1904 6.21827 9.75889 6.54822 9.45432C6.85279 9.14975 7.28426 8.94671 7.74112 8.94671C8.19797 8.94671 8.62944 9.12437 8.93401 9.45432C9.23858 9.75889 9.44162 10.1904 9.44162 10.6472V17.3223C9.44162 17.3477 9.44162 17.3731 9.44162 17.3731C9.44162 17.9061 9.67005 18.4137 10.0254 18.769C10.3807 19.1244 10.8629 19.3528 11.4213 19.3528C11.9543 19.3528 12.4619 19.1244 12.8173 18.769C13.1726 18.4137 13.401 17.9315 13.401 17.3731C13.401 17.0178 13.0964 16.7132 12.7411 16.7132C12.3858 16.7132 12.0812 17.0178 12.0812 17.3731C12.0812 17.5508 12.0051 17.7284 11.8782 17.83C11.7513 17.9569 11.599 18.033 11.4213 18.033C11.2437 18.033 11.066 17.9569 10.9645 17.83C10.8376 17.7031 10.7614 17.5508 10.7614 17.3731C10.7614 17.3477 10.7614 17.3477 10.7614 17.3223V10.6472C10.7614 10.1904 10.9391 9.75889 11.269 9.45432C11.5736 9.14975 12.0051 8.94671 12.4619 8.94671C12.9188 8.94671 13.3503 9.12437 13.6548 9.45432C13.9594 9.75889 14.1624 10.1904 14.1624 10.6472C14.1624 11.0025 14.467 11.3071 14.8223 11.3071C15.1777 11.3071 15.3299 11.0279 15.3299 10.6472C15.3299 10.1904 15.5076 9.75889 15.8376 9.45432C16.1421 9.14975 16.5736 8.94671 17.0305 8.94671C17.4619 8.94671 17.8426 9.09899 18.1472 9.37818C18.4518 9.65737 18.6548 10.0127 18.7056 10.4442C18.7563 10.7741 19.0355 11.0279 19.3655 11.0279C19.7208 11.0279 20 10.7234 20 10.368C19.9239 7.67767 18.7817 5.24113 16.9797 3.48986ZM17.0305 7.65229C16.2183 7.65229 15.4569 7.98224 14.9239 8.54062C14.8477 8.61676 14.7716 8.6929 14.6954 8.79443C14.6193 8.71828 14.5431 8.61676 14.467 8.54062C13.934 8.00762 13.1726 7.65229 12.3604 7.65229C11.5482 7.65229 10.7868 7.98224 10.2538 8.54062C10.1777 8.61676 10.1015 8.6929 10.0254 8.79443C9.94924 8.71828 9.8731 8.61676 9.79695 8.54062C9.26396 8.00762 8.50254 7.65229 7.69035 7.65229C6.87817 7.65229 6.11675 7.98224 5.58376 8.54062C5.50761 8.61676 5.43147 8.6929 5.35533 8.79443C5.27919 8.71828 5.20305 8.61676 5.1269 8.54062C4.59391 8.00762 3.83249 7.65229 3.0203 7.65229C2.56345 7.65229 2.15736 7.75382 1.77665 7.93148C2.20812 6.61168 2.94416 5.44417 3.88325 4.50508C5.45685 2.93148 7.63959 1.96701 10.0254 1.96701C12.3858 1.96701 14.5178 2.9061 16.066 4.42894C17.0558 5.39341 17.8173 6.5863 18.2741 7.95686C17.8934 7.75382 17.4619 7.65229 17.0305 7.65229Z" fill="#673535"/>
</svg>
