<svg width="50" height="50" viewBox="0 0 50 50" fill="none" xmlns="http://www.w3.org/2000/svg">
<g clip-path="url(#clip0)">
<path d="M46.5329 13.0455C44.4039 10.9165 41.4234 9.57831 38.1387 9.57831C37.8346 9.57831 37.4696 9.57831 37.1655 9.63914C36.0097 7.20605 34.3066 5.19875 32.1776 3.7389C29.7445 2.03574 26.764 1.0625 23.6618 1.0625C19.9513 1.0625 16.545 2.4007 13.9294 4.65131C11.618 6.6586 9.91484 9.335 9.12409 12.498C6.75183 12.8022 4.62287 13.897 3.04136 15.4786C1.15572 17.3642 0 19.9798 0 22.8386C0 25.6975 1.15572 28.3131 3.04136 30.1987C4.92701 32.1452 7.54258 33.3009 10.4623 33.3009H38.1387C41.4234 33.3009 44.3431 31.9627 46.5329 29.8338C48.6618 27.7048 50 24.7243 50 21.4396C50 18.1549 48.6618 15.2352 46.5329 13.0455ZM44.0998 27.644C42.5183 29.2255 40.3285 30.1987 37.9562 30.1987H10.4623C8.45499 30.1987 6.63017 29.408 5.29197 28.0698C3.95377 26.7316 3.16302 24.9068 3.16302 22.8995C3.16302 20.8313 3.95377 19.0065 5.29197 17.7292C6.63017 16.391 8.45499 15.6002 10.4623 15.6002C10.7056 15.6002 11.0097 15.5394 11.1922 15.4177C11.5572 15.1744 11.8005 14.8095 11.8613 14.3837C12.2871 11.5248 13.747 8.97004 15.8151 7.20605C17.8832 5.44206 20.6204 4.34717 23.5401 4.34717C26.0341 4.34717 28.3455 5.13792 30.292 6.47612C31.7518 7.51019 33.0292 8.84838 33.8808 10.4907C33.6375 10.6124 33.3942 10.6732 33.1509 10.7949C31.6302 11.464 30.292 12.498 29.1363 13.7146C28.5888 14.3837 28.6496 15.3569 29.2579 15.9043C29.927 16.4518 30.9002 16.391 31.4477 15.7827C32.2993 14.8703 33.2725 14.1404 34.3674 13.5929C35.4623 13.1063 36.6788 12.8022 37.9562 12.8022C40.3893 12.8022 42.5183 13.7754 44.0998 15.3569C45.6813 16.9384 46.6545 19.1282 46.6545 21.5004C46.6545 23.8727 45.6813 26.0625 44.0998 27.644Z" fill="#393567"/>
<path d="M27.0681 35.9165C26.8248 35.5515 26.5815 35.2474 26.3382 34.7608C26.2165 34.5783 26.0341 34.3958 25.8516 34.2742C25.1217 33.7875 24.1484 34.0309 23.6618 34.7608C23.3577 35.1866 23.1752 35.5515 22.871 35.9165C21.4112 38.0454 19.2822 41.2085 19.2822 43.2766C19.2822 44.8581 19.8905 46.2571 20.9246 47.2912C21.9586 48.3252 23.3577 48.9335 24.9392 48.9335C26.5815 48.9943 27.9805 48.3252 29.0146 47.2912C30.0487 46.2571 30.6569 44.8581 30.6569 43.2766C30.6569 41.2085 28.528 38.0454 27.0681 35.9165ZM26.8248 45.1014C26.3382 45.588 25.7299 45.8313 25 45.8313C24.2701 45.8313 23.6618 45.5272 23.1752 45.1014C22.6886 44.6148 22.4453 44.0065 22.4453 43.2766C22.4453 42.3033 23.8443 40.1136 25 38.4104C26.1557 40.1136 27.5547 42.3033 27.5547 43.2766C27.5547 44.0065 27.2506 44.6148 26.8248 45.1014Z" fill="#393567"/>
<path d="M40.0243 35.9165C39.781 35.5515 39.5377 35.2474 39.2944 34.7608C39.1727 34.5783 38.9903 34.3958 38.8078 34.2742C38.0779 33.7875 37.1046 34.0309 36.618 34.7608C36.3139 35.2474 36.1314 35.5515 35.8273 35.9165C34.3674 38.0454 32.2384 41.2085 32.2384 43.2766C32.2384 44.8581 32.8467 46.2571 33.8808 47.2912C34.9148 48.3252 36.3139 48.9335 37.8954 48.9335C39.4769 48.9943 40.8759 48.3252 41.91 47.2912C42.944 46.2571 43.6131 44.8581 43.6131 43.2766C43.6131 41.2085 41.4842 38.0454 40.0243 35.9165ZM39.7202 45.1014C39.2336 45.588 38.6253 45.8313 37.8954 45.8313C37.1655 45.8313 36.5572 45.5272 36.0706 45.1014C35.5839 44.6148 35.3406 44.0065 35.3406 43.2766C35.3406 42.3033 36.7397 40.1136 37.8954 38.4104C39.0511 40.1136 40.4501 42.3033 40.4501 43.2766C40.4501 44.0065 40.146 44.6148 39.7202 45.1014Z" fill="#393567"/>
<path d="M14.1119 35.9165C13.8686 35.5515 13.6253 35.2474 13.382 34.7608C13.3212 34.5783 13.1387 34.4566 12.9562 34.2742C12.2263 33.7875 11.253 34.0309 10.7664 34.7608C10.4623 35.2474 10.2798 35.5515 9.97567 35.9165C8.51582 38.0454 6.38686 41.2085 6.38686 43.2766C6.38686 44.8581 6.99514 46.2571 8.0292 47.2912C9.06326 48.3252 10.4623 48.9335 12.0438 48.9335C13.5645 48.9335 14.9635 48.3252 15.9367 47.352C15.9976 47.352 15.9976 47.2912 16.0584 47.2912C17.0925 46.2571 17.7007 44.8581 17.7007 43.2766C17.7007 41.2085 15.5718 38.0454 14.1119 35.9165ZM13.9294 45.1014L13.8686 45.1622C13.4428 45.588 12.8345 45.8313 12.1046 45.8313C11.3747 45.8313 10.7664 45.5272 10.2798 45.1014C9.79319 44.6148 9.54988 44.0065 9.54988 43.2766C9.54988 42.3034 10.9489 40.1136 12.1046 38.4104C13.2603 40.1744 14.6594 42.3034 14.6594 43.2766C14.6594 44.0065 14.3552 44.6148 13.9294 45.1014Z" fill="#393567"/>
</g>
<defs>
<clipPath id="clip0">
<rect width="50" height="50" fill="white"/>
</clipPath>
</defs>
</svg>
