<svg width="75" height="75" viewBox="0 0 75 75" fill="none" xmlns="http://www.w3.org/2000/svg">
<path d="M64.1076 11.0766C63.6784 10.6447 62.9804 10.6422 62.5482 11.0712C62.1161 11.5003 62.1137 12.1985 62.5427 12.6306C69.0383 19.1712 72.6639 27.8122 72.7886 37.0096C68.226 37.3137 64.6064 41.1201 64.6064 45.7582C64.6064 48.956 66.3142 51.8358 69.0397 53.3802C67.3671 56.694 65.158 59.756 62.457 62.457C57.5535 67.3605 51.4605 70.6411 44.8294 72.0343C43.6407 69.0769 40.7602 67.0882 37.4998 67.0882C34.2397 67.0882 31.3603 69.0774 30.1718 72.0346C23.5401 70.6414 17.4466 67.3608 12.5427 62.457C5.87661 55.7908 2.20527 46.9275 2.20527 37.4999C2.20527 31.6285 3.62988 25.9762 6.31458 20.937C8.27036 21.7852 10.404 22.2311 12.5473 22.2311C14.3975 22.2311 16.2091 21.911 17.9315 21.2797C18.5033 21.0702 18.7969 20.4367 18.5874 19.865C18.3779 19.2932 17.7444 18.9995 17.1726 19.2091C15.694 19.751 14.1379 20.0258 12.5474 20.0258C10.7608 20.0258 9.04177 19.6854 7.42133 19.0137C8.85402 16.6923 10.5656 14.5203 12.543 12.5429C16.3403 8.74552 20.8514 5.9216 25.7727 4.19296C25.9149 4.98024 25.9878 5.7809 25.9878 6.58524C25.9878 10.6619 24.167 14.4729 20.9923 17.0406C20.5187 17.4236 20.4454 18.1179 20.8284 18.5913C21.0462 18.8608 21.365 19.0006 21.6864 19.0006C21.93 19.0006 22.175 18.9204 22.3791 18.7553C26.074 15.7667 28.1931 11.3308 28.1931 6.58524C28.1931 5.55479 28.0916 4.52889 27.8917 3.52329C30.9792 2.6553 34.2048 2.20527 37.4999 2.20527C45.4133 2.20527 52.8927 4.76574 59.1295 9.6097C59.6106 9.98327 60.3033 9.89623 60.6768 9.41519C61.0503 8.93429 60.9633 8.24154 60.4823 7.86797C53.855 2.72072 45.9078 0 37.4999 0C27.4833 0 18.0663 3.90069 10.9834 10.9834C3.90069 18.0663 0 27.4833 0 37.4999C0 47.5166 3.90069 56.9337 10.9834 64.0164C18.0662 71.0993 27.4833 74.9999 37.4999 74.9999C47.5166 74.9999 56.9337 71.0992 64.0164 64.0164C71.0993 56.9337 74.9999 47.5166 74.9999 37.4999C75 27.5334 71.1317 18.1495 64.1076 11.0766ZM32.4093 72.4312C33.3587 70.5378 35.3102 69.2936 37.4999 69.2936C39.6898 69.2936 41.6419 70.5376 42.5915 72.431C40.9196 72.6711 39.2193 72.7947 37.4999 72.7947C35.7808 72.7947 34.0809 72.6712 32.4093 72.4312ZM66.8118 45.7582C66.8118 42.3486 69.4248 39.5388 72.7531 39.2234C72.5508 43.4602 71.6015 47.5596 69.9723 51.372C68.0241 50.1955 66.8118 48.0895 66.8118 45.7582Z" fill="#E5E5E5"/>
<path d="M47.5868 35.2705C47.5713 35.2701 47.5555 35.2695 47.5398 35.2696C46.9342 35.2696 46.4413 35.7586 46.4373 36.3651C46.4335 36.969 46.9158 37.4627 47.5179 37.4746C47.5363 37.4752 47.5545 37.4757 47.573 37.4757C52.8382 37.4757 57.1218 33.1921 57.1218 27.9268C57.1218 22.6615 52.8383 18.378 47.573 18.378C42.3077 18.378 38.0242 22.6615 38.0242 27.9268C38.0242 31.1972 39.6718 34.2045 42.4316 35.9717C42.944 36.2998 43.6262 36.1506 43.9548 35.6376C44.2831 35.1247 44.1335 34.4428 43.6207 34.1144C41.4972 32.7548 40.2295 30.4417 40.2295 27.9268C40.2295 23.8776 43.5237 20.5833 47.573 20.5833C51.6223 20.5833 54.9166 23.8775 54.9166 27.9268C54.9163 31.9714 51.6295 35.2629 47.5868 35.2705Z" fill="#E5E5E5"/>
<path d="M22.9154 50.624C26.2042 50.624 28.8797 47.9484 28.8797 44.6597C28.8797 41.3711 26.2041 38.6955 22.9154 38.6955C19.6268 38.6955 16.9512 41.3711 16.9512 44.6597C16.9512 47.9484 19.6266 50.624 22.9154 50.624ZM22.9154 40.9008C24.9882 40.9008 26.6744 42.5871 26.6744 44.6597C26.6744 46.7324 24.9881 48.4187 22.9154 48.4187C20.8428 48.4187 19.1565 46.7324 19.1565 44.6597C19.1565 42.5871 20.8426 40.9008 22.9154 40.9008Z" fill="#E5E5E5"/>
<path d="M13.8919 28.1642C11.6477 28.1642 9.8217 29.9901 9.8217 32.2344C9.8217 34.4788 11.6475 36.3046 13.8919 36.3046C16.1363 36.3046 17.9621 34.4788 17.9621 32.2344C17.9621 29.9901 16.1361 28.1642 13.8919 28.1642ZM13.8919 34.0992C12.8637 34.0992 12.027 33.2627 12.027 32.2343C12.027 31.2059 12.8635 30.3694 13.8919 30.3694C14.9203 30.3694 15.7568 31.2059 15.7568 32.2343C15.7568 33.2627 14.9201 34.0992 13.8919 34.0992Z" fill="#E5E5E5"/>
<path d="M46.2835 61.935C49.339 61.935 51.8248 59.4492 51.8248 56.3937C51.8248 53.3382 49.339 50.8524 46.2835 50.8524C43.228 50.8524 40.7423 53.3382 40.7423 56.3937C40.7423 59.4492 43.228 61.935 46.2835 61.935ZM46.2835 53.0577C48.123 53.0577 49.6195 54.5542 49.6195 56.3937C49.6195 58.2332 48.123 59.7297 46.2835 59.7297C44.444 59.7297 42.9475 58.2332 42.9475 56.3937C42.9475 54.5542 44.444 53.0577 46.2835 53.0577Z" fill="#E5E5E5"/>
<path d="M58.5738 44.7275C58.5738 42.3889 56.6712 40.4861 54.3326 40.4861C51.994 40.4861 50.0913 42.3887 50.0913 44.7275C50.0913 47.0662 51.9939 48.9688 54.3326 48.9688C56.6712 48.9688 58.5738 47.0661 58.5738 44.7275ZM52.2966 44.7275C52.2966 43.6048 53.2098 42.6914 54.3326 42.6914C55.4553 42.6914 56.3685 43.6047 56.3685 44.7275C56.3685 45.8502 55.4553 46.7635 54.3326 46.7635C53.21 46.7635 52.2966 45.8501 52.2966 44.7275Z" fill="#E5E5E5"/>
</svg>
